<mxfile host="Electron" agent="Mozilla/5.0 (Macintosh; Intel Mac OS X 10_15_7) AppleWebKit/537.36 (KHTML, like Gecko) draw.io/24.7.17 Chrome/128.0.6613.36 Electron/32.0.1 Safari/537.36" version="24.7.17">
  <diagram name="Page-1" id="x6YaAhDP7O0NWMj4q5g-">
    <mxGraphModel dx="938" dy="709" grid="1" gridSize="10" guides="1" tooltips="1" connect="1" arrows="1" fold="1" page="1" pageScale="1" pageWidth="827" pageHeight="1169" math="0" shadow="0">
      <root>
        <mxCell id="0" />
        <mxCell id="1" parent="0" />
        <mxCell id="wmuh265id5Z9wnBF3gp4-1" style="edgeStyle=orthogonalEdgeStyle;rounded=0;orthogonalLoop=1;jettySize=auto;html=1;exitX=1;exitY=0.5;exitDx=0;exitDy=0;entryX=0;entryY=0.5;entryDx=0;entryDy=0;endArrow=none;endFill=0;" parent="1" source="wmuh265id5Z9wnBF3gp4-7" target="wmuh265id5Z9wnBF3gp4-8" edge="1">
          <mxGeometry relative="1" as="geometry" />
        </mxCell>
        <mxCell id="wmuh265id5Z9wnBF3gp4-2" style="edgeStyle=orthogonalEdgeStyle;rounded=0;orthogonalLoop=1;jettySize=auto;html=1;exitX=1;exitY=0.5;exitDx=0;exitDy=0;entryX=0;entryY=0.5;entryDx=0;entryDy=0;endArrow=none;endFill=0;" parent="1" source="wmuh265id5Z9wnBF3gp4-7" target="wmuh265id5Z9wnBF3gp4-9" edge="1">
          <mxGeometry relative="1" as="geometry" />
        </mxCell>
        <mxCell id="wmuh265id5Z9wnBF3gp4-3" style="edgeStyle=orthogonalEdgeStyle;rounded=0;orthogonalLoop=1;jettySize=auto;html=1;exitX=1;exitY=0.5;exitDx=0;exitDy=0;entryX=0;entryY=0.5;entryDx=0;entryDy=0;endArrow=none;endFill=0;" parent="1" source="wmuh265id5Z9wnBF3gp4-7" target="wmuh265id5Z9wnBF3gp4-10" edge="1">
          <mxGeometry relative="1" as="geometry" />
        </mxCell>
        <mxCell id="wmuh265id5Z9wnBF3gp4-4" style="edgeStyle=orthogonalEdgeStyle;rounded=0;orthogonalLoop=1;jettySize=auto;html=1;exitX=1;exitY=0.5;exitDx=0;exitDy=0;entryX=0;entryY=0.5;entryDx=0;entryDy=0;endArrow=none;endFill=0;" parent="1" source="wmuh265id5Z9wnBF3gp4-7" target="wmuh265id5Z9wnBF3gp4-11" edge="1">
          <mxGeometry relative="1" as="geometry" />
        </mxCell>
        <mxCell id="wmuh265id5Z9wnBF3gp4-5" style="edgeStyle=orthogonalEdgeStyle;rounded=0;orthogonalLoop=1;jettySize=auto;html=1;exitX=1;exitY=0.5;exitDx=0;exitDy=0;entryX=0;entryY=0.5;entryDx=0;entryDy=0;endArrow=none;endFill=0;" parent="1" source="wmuh265id5Z9wnBF3gp4-7" target="wmuh265id5Z9wnBF3gp4-12" edge="1">
          <mxGeometry relative="1" as="geometry" />
        </mxCell>
        <mxCell id="wmuh265id5Z9wnBF3gp4-6" style="edgeStyle=orthogonalEdgeStyle;rounded=0;orthogonalLoop=1;jettySize=auto;html=1;exitX=0.5;exitY=1;exitDx=0;exitDy=0;entryX=0.5;entryY=0;entryDx=0;entryDy=0;endArrow=none;endFill=0;" parent="1" source="wmuh265id5Z9wnBF3gp4-7" target="wmuh265id5Z9wnBF3gp4-14" edge="1">
          <mxGeometry relative="1" as="geometry" />
        </mxCell>
        <mxCell id="wmuh265id5Z9wnBF3gp4-45" style="edgeStyle=orthogonalEdgeStyle;rounded=0;orthogonalLoop=1;jettySize=auto;html=1;exitX=0;exitY=0.75;exitDx=0;exitDy=0;entryX=0.5;entryY=0;entryDx=0;entryDy=0;endArrow=none;endFill=0;" parent="1" source="wmuh265id5Z9wnBF3gp4-7" target="wmuh265id5Z9wnBF3gp4-44" edge="1">
          <mxGeometry relative="1" as="geometry" />
        </mxCell>
        <mxCell id="wmuh265id5Z9wnBF3gp4-101" value="M" style="edgeLabel;html=1;align=center;verticalAlign=middle;resizable=0;points=[];" parent="wmuh265id5Z9wnBF3gp4-45" vertex="1" connectable="0">
          <mxGeometry x="-0.8921" y="1" relative="1" as="geometry">
            <mxPoint as="offset" />
          </mxGeometry>
        </mxCell>
        <mxCell id="wmuh265id5Z9wnBF3gp4-77" style="edgeStyle=orthogonalEdgeStyle;rounded=0;orthogonalLoop=1;jettySize=auto;html=1;exitX=0;exitY=0.5;exitDx=0;exitDy=0;entryX=0.5;entryY=0;entryDx=0;entryDy=0;endArrow=none;endFill=0;" parent="1" source="wmuh265id5Z9wnBF3gp4-7" target="wmuh265id5Z9wnBF3gp4-24" edge="1">
          <mxGeometry relative="1" as="geometry" />
        </mxCell>
        <mxCell id="wmuh265id5Z9wnBF3gp4-99" value="M" style="edgeLabel;html=1;align=center;verticalAlign=middle;resizable=0;points=[];" parent="wmuh265id5Z9wnBF3gp4-77" vertex="1" connectable="0">
          <mxGeometry x="-0.7889" y="-1" relative="1" as="geometry">
            <mxPoint as="offset" />
          </mxGeometry>
        </mxCell>
        <mxCell id="wmuh265id5Z9wnBF3gp4-80" style="edgeStyle=orthogonalEdgeStyle;rounded=0;orthogonalLoop=1;jettySize=auto;html=1;exitX=0;exitY=0.25;exitDx=0;exitDy=0;entryX=0.5;entryY=0;entryDx=0;entryDy=0;endArrow=none;endFill=0;" parent="1" source="wmuh265id5Z9wnBF3gp4-7" target="wmuh265id5Z9wnBF3gp4-79" edge="1">
          <mxGeometry relative="1" as="geometry" />
        </mxCell>
        <mxCell id="wmuh265id5Z9wnBF3gp4-102" value="M" style="edgeLabel;html=1;align=center;verticalAlign=middle;resizable=0;points=[];" parent="wmuh265id5Z9wnBF3gp4-80" vertex="1" connectable="0">
          <mxGeometry x="-0.9232" y="-1" relative="1" as="geometry">
            <mxPoint as="offset" />
          </mxGeometry>
        </mxCell>
        <mxCell id="wmuh265id5Z9wnBF3gp4-7" value="Пользователь" style="rounded=0;whiteSpace=wrap;html=1;" parent="1" vertex="1">
          <mxGeometry x="471" y="205" width="120" height="60" as="geometry" />
        </mxCell>
        <mxCell id="wmuh265id5Z9wnBF3gp4-8" value="ФИО" style="ellipse;whiteSpace=wrap;html=1;" parent="1" vertex="1">
          <mxGeometry x="631" y="90" width="120" height="50" as="geometry" />
        </mxCell>
        <mxCell id="wmuh265id5Z9wnBF3gp4-9" value="Почта" style="ellipse;whiteSpace=wrap;html=1;" parent="1" vertex="1">
          <mxGeometry x="631" y="150" width="120" height="50" as="geometry" />
        </mxCell>
        <mxCell id="wmuh265id5Z9wnBF3gp4-10" value="Пароль" style="ellipse;whiteSpace=wrap;html=1;" parent="1" vertex="1">
          <mxGeometry x="631" y="210" width="120" height="50" as="geometry" />
        </mxCell>
        <mxCell id="wmuh265id5Z9wnBF3gp4-11" value="Телефон" style="ellipse;whiteSpace=wrap;html=1;" parent="1" vertex="1">
          <mxGeometry x="631" y="270" width="120" height="50" as="geometry" />
        </mxCell>
        <mxCell id="wmuh265id5Z9wnBF3gp4-12" value="ID&lt;br&gt;" style="ellipse;whiteSpace=wrap;html=1;" parent="1" vertex="1">
          <mxGeometry x="631" y="330" width="120" height="50" as="geometry" />
        </mxCell>
        <mxCell id="wmuh265id5Z9wnBF3gp4-13" style="edgeStyle=orthogonalEdgeStyle;rounded=0;orthogonalLoop=1;jettySize=auto;html=1;exitX=0.5;exitY=1;exitDx=0;exitDy=0;entryX=0.5;entryY=0;entryDx=0;entryDy=0;endArrow=none;endFill=0;" parent="1" source="wmuh265id5Z9wnBF3gp4-14" target="wmuh265id5Z9wnBF3gp4-16" edge="1">
          <mxGeometry relative="1" as="geometry" />
        </mxCell>
        <mxCell id="wmuh265id5Z9wnBF3gp4-14" value="Имеет" style="rhombus;whiteSpace=wrap;html=1;" parent="1" vertex="1">
          <mxGeometry x="466" y="315" width="130" height="80" as="geometry" />
        </mxCell>
        <mxCell id="wmuh265id5Z9wnBF3gp4-15" style="edgeStyle=orthogonalEdgeStyle;rounded=0;orthogonalLoop=1;jettySize=auto;html=1;exitX=1;exitY=0.5;exitDx=0;exitDy=0;entryX=0;entryY=0.5;entryDx=0;entryDy=0;endArrow=none;endFill=0;" parent="1" source="wmuh265id5Z9wnBF3gp4-16" target="wmuh265id5Z9wnBF3gp4-17" edge="1">
          <mxGeometry relative="1" as="geometry" />
        </mxCell>
        <mxCell id="wmuh265id5Z9wnBF3gp4-23" style="edgeStyle=orthogonalEdgeStyle;rounded=0;orthogonalLoop=1;jettySize=auto;html=1;exitX=1;exitY=0.5;exitDx=0;exitDy=0;entryX=0;entryY=0.5;entryDx=0;entryDy=0;endArrow=none;endFill=0;" parent="1" source="wmuh265id5Z9wnBF3gp4-16" target="wmuh265id5Z9wnBF3gp4-22" edge="1">
          <mxGeometry relative="1" as="geometry" />
        </mxCell>
        <mxCell id="wmuh265id5Z9wnBF3gp4-30" style="edgeStyle=orthogonalEdgeStyle;rounded=0;orthogonalLoop=1;jettySize=auto;html=1;exitX=0.5;exitY=1;exitDx=0;exitDy=0;entryX=0.5;entryY=0;entryDx=0;entryDy=0;endArrow=none;endFill=0;" parent="1" source="wmuh265id5Z9wnBF3gp4-16" target="wmuh265id5Z9wnBF3gp4-28" edge="1">
          <mxGeometry relative="1" as="geometry" />
        </mxCell>
        <mxCell id="wmuh265id5Z9wnBF3gp4-104" value="1" style="edgeLabel;html=1;align=center;verticalAlign=middle;resizable=0;points=[];" parent="wmuh265id5Z9wnBF3gp4-30" vertex="1" connectable="0">
          <mxGeometry x="-0.16" y="-1" relative="1" as="geometry">
            <mxPoint as="offset" />
          </mxGeometry>
        </mxCell>
        <mxCell id="wmuh265id5Z9wnBF3gp4-16" value="Школа" style="rounded=0;whiteSpace=wrap;html=1;" parent="1" vertex="1">
          <mxGeometry x="471" y="455" width="120" height="60" as="geometry" />
        </mxCell>
        <mxCell id="wmuh265id5Z9wnBF3gp4-17" value="ID&lt;br&gt;" style="ellipse;whiteSpace=wrap;html=1;" parent="1" vertex="1">
          <mxGeometry x="631" y="420" width="120" height="50" as="geometry" />
        </mxCell>
        <mxCell id="wmuh265id5Z9wnBF3gp4-18" value="1" style="text;html=1;align=center;verticalAlign=middle;resizable=0;points=[];autosize=1;strokeColor=none;fillColor=none;" parent="1" vertex="1">
          <mxGeometry x="531" y="290" width="30" height="30" as="geometry" />
        </mxCell>
        <mxCell id="wmuh265id5Z9wnBF3gp4-19" value="1" style="text;html=1;align=center;verticalAlign=middle;resizable=0;points=[];autosize=1;strokeColor=none;fillColor=none;" parent="1" vertex="1">
          <mxGeometry x="531" y="385" width="30" height="30" as="geometry" />
        </mxCell>
        <mxCell id="wmuh265id5Z9wnBF3gp4-22" value="Описание" style="ellipse;whiteSpace=wrap;html=1;" parent="1" vertex="1">
          <mxGeometry x="631" y="480" width="120" height="50" as="geometry" />
        </mxCell>
        <mxCell id="wmuh265id5Z9wnBF3gp4-82" style="edgeStyle=orthogonalEdgeStyle;rounded=0;orthogonalLoop=1;jettySize=auto;html=1;exitX=0.5;exitY=1;exitDx=0;exitDy=0;entryX=0;entryY=0.25;entryDx=0;entryDy=0;endArrow=none;endFill=0;" parent="1" source="wmuh265id5Z9wnBF3gp4-24" target="wmuh265id5Z9wnBF3gp4-16" edge="1">
          <mxGeometry relative="1" as="geometry" />
        </mxCell>
        <mxCell id="wmuh265id5Z9wnBF3gp4-98" value="N" style="edgeLabel;html=1;align=center;verticalAlign=middle;resizable=0;points=[];" parent="wmuh265id5Z9wnBF3gp4-82" vertex="1" connectable="0">
          <mxGeometry x="0.7257" y="3" relative="1" as="geometry">
            <mxPoint y="1" as="offset" />
          </mxGeometry>
        </mxCell>
        <mxCell id="wmuh265id5Z9wnBF3gp4-24" value="Обучается" style="rhombus;whiteSpace=wrap;html=1;" parent="1" vertex="1">
          <mxGeometry x="306" y="315" width="130" height="80" as="geometry" />
        </mxCell>
        <mxCell id="wmuh265id5Z9wnBF3gp4-33" style="edgeStyle=orthogonalEdgeStyle;rounded=0;orthogonalLoop=1;jettySize=auto;html=1;exitX=0.5;exitY=1;exitDx=0;exitDy=0;entryX=0.5;entryY=0;entryDx=0;entryDy=0;endArrow=none;endFill=0;" parent="1" source="wmuh265id5Z9wnBF3gp4-27" target="wmuh265id5Z9wnBF3gp4-32" edge="1">
          <mxGeometry relative="1" as="geometry" />
        </mxCell>
        <mxCell id="wmuh265id5Z9wnBF3gp4-107" value="1" style="edgeLabel;html=1;align=center;verticalAlign=middle;resizable=0;points=[];" parent="wmuh265id5Z9wnBF3gp4-33" vertex="1" connectable="0">
          <mxGeometry x="-0.3" relative="1" as="geometry">
            <mxPoint as="offset" />
          </mxGeometry>
        </mxCell>
        <mxCell id="wmuh265id5Z9wnBF3gp4-52" style="edgeStyle=orthogonalEdgeStyle;rounded=0;orthogonalLoop=1;jettySize=auto;html=1;exitX=1;exitY=0.5;exitDx=0;exitDy=0;entryX=0;entryY=0.5;entryDx=0;entryDy=0;endArrow=none;endFill=0;" parent="1" source="wmuh265id5Z9wnBF3gp4-27" target="wmuh265id5Z9wnBF3gp4-47" edge="1">
          <mxGeometry relative="1" as="geometry" />
        </mxCell>
        <mxCell id="wmuh265id5Z9wnBF3gp4-53" style="edgeStyle=orthogonalEdgeStyle;rounded=0;orthogonalLoop=1;jettySize=auto;html=1;exitX=1;exitY=0.5;exitDx=0;exitDy=0;entryX=0;entryY=0.5;entryDx=0;entryDy=0;endArrow=none;endFill=0;" parent="1" source="wmuh265id5Z9wnBF3gp4-27" target="wmuh265id5Z9wnBF3gp4-48" edge="1">
          <mxGeometry relative="1" as="geometry" />
        </mxCell>
        <mxCell id="wmuh265id5Z9wnBF3gp4-54" style="edgeStyle=orthogonalEdgeStyle;rounded=0;orthogonalLoop=1;jettySize=auto;html=1;exitX=1;exitY=0.5;exitDx=0;exitDy=0;entryX=0;entryY=0.5;entryDx=0;entryDy=0;endArrow=none;endFill=0;" parent="1" source="wmuh265id5Z9wnBF3gp4-27" target="wmuh265id5Z9wnBF3gp4-49" edge="1">
          <mxGeometry relative="1" as="geometry" />
        </mxCell>
        <mxCell id="wmuh265id5Z9wnBF3gp4-55" style="edgeStyle=orthogonalEdgeStyle;rounded=0;orthogonalLoop=1;jettySize=auto;html=1;exitX=1;exitY=0.5;exitDx=0;exitDy=0;entryX=0;entryY=0.5;entryDx=0;entryDy=0;endArrow=none;endFill=0;" parent="1" source="wmuh265id5Z9wnBF3gp4-27" target="wmuh265id5Z9wnBF3gp4-50" edge="1">
          <mxGeometry relative="1" as="geometry" />
        </mxCell>
        <mxCell id="wmuh265id5Z9wnBF3gp4-56" style="edgeStyle=orthogonalEdgeStyle;rounded=0;orthogonalLoop=1;jettySize=auto;html=1;exitX=1;exitY=0.5;exitDx=0;exitDy=0;entryX=0;entryY=0.5;entryDx=0;entryDy=0;endArrow=none;endFill=0;" parent="1" source="wmuh265id5Z9wnBF3gp4-27" target="wmuh265id5Z9wnBF3gp4-51" edge="1">
          <mxGeometry relative="1" as="geometry" />
        </mxCell>
        <mxCell id="wmuh265id5Z9wnBF3gp4-120" style="edgeStyle=orthogonalEdgeStyle;rounded=0;orthogonalLoop=1;jettySize=auto;html=1;exitX=1;exitY=0.5;exitDx=0;exitDy=0;entryX=0;entryY=0.5;entryDx=0;entryDy=0;endArrow=none;endFill=0;" parent="1" source="wmuh265id5Z9wnBF3gp4-27" target="wmuh265id5Z9wnBF3gp4-119" edge="1">
          <mxGeometry relative="1" as="geometry" />
        </mxCell>
        <mxCell id="wmuh265id5Z9wnBF3gp4-27" value="Курс" style="rounded=0;whiteSpace=wrap;html=1;" parent="1" vertex="1">
          <mxGeometry x="471" y="644" width="120" height="60" as="geometry" />
        </mxCell>
        <mxCell id="wmuh265id5Z9wnBF3gp4-29" style="edgeStyle=orthogonalEdgeStyle;rounded=0;orthogonalLoop=1;jettySize=auto;html=1;exitX=0.5;exitY=1;exitDx=0;exitDy=0;entryX=0.5;entryY=0;entryDx=0;entryDy=0;endArrow=none;endFill=0;" parent="1" source="wmuh265id5Z9wnBF3gp4-28" target="wmuh265id5Z9wnBF3gp4-27" edge="1">
          <mxGeometry relative="1" as="geometry" />
        </mxCell>
        <mxCell id="wmuh265id5Z9wnBF3gp4-105" value="N" style="edgeLabel;html=1;align=center;verticalAlign=middle;resizable=0;points=[];" parent="wmuh265id5Z9wnBF3gp4-29" vertex="1" connectable="0">
          <mxGeometry x="-0.2083" y="-1" relative="1" as="geometry">
            <mxPoint as="offset" />
          </mxGeometry>
        </mxCell>
        <mxCell id="wmuh265id5Z9wnBF3gp4-28" value="Имеет" style="rhombus;whiteSpace=wrap;html=1;" parent="1" vertex="1">
          <mxGeometry x="466" y="540" width="130" height="80" as="geometry" />
        </mxCell>
        <mxCell id="wmuh265id5Z9wnBF3gp4-61" style="edgeStyle=orthogonalEdgeStyle;rounded=0;orthogonalLoop=1;jettySize=auto;html=1;exitX=0;exitY=0.5;exitDx=0;exitDy=0;entryX=1;entryY=0.5;entryDx=0;entryDy=0;endArrow=none;endFill=0;" parent="1" source="wmuh265id5Z9wnBF3gp4-31" target="wmuh265id5Z9wnBF3gp4-57" edge="1">
          <mxGeometry relative="1" as="geometry" />
        </mxCell>
        <mxCell id="wmuh265id5Z9wnBF3gp4-62" style="edgeStyle=orthogonalEdgeStyle;rounded=0;orthogonalLoop=1;jettySize=auto;html=1;exitX=0;exitY=0.5;exitDx=0;exitDy=0;entryX=1;entryY=0.5;entryDx=0;entryDy=0;endArrow=none;endFill=0;" parent="1" source="wmuh265id5Z9wnBF3gp4-31" target="wmuh265id5Z9wnBF3gp4-58" edge="1">
          <mxGeometry relative="1" as="geometry" />
        </mxCell>
        <mxCell id="wmuh265id5Z9wnBF3gp4-64" style="edgeStyle=orthogonalEdgeStyle;rounded=0;orthogonalLoop=1;jettySize=auto;html=1;exitX=0;exitY=0.5;exitDx=0;exitDy=0;entryX=1;entryY=0.5;entryDx=0;entryDy=0;endArrow=none;endFill=0;" parent="1" source="wmuh265id5Z9wnBF3gp4-31" target="wmuh265id5Z9wnBF3gp4-59" edge="1">
          <mxGeometry relative="1" as="geometry" />
        </mxCell>
        <mxCell id="wmuh265id5Z9wnBF3gp4-65" style="edgeStyle=orthogonalEdgeStyle;rounded=0;orthogonalLoop=1;jettySize=auto;html=1;exitX=0;exitY=0.5;exitDx=0;exitDy=0;entryX=1;entryY=0.5;entryDx=0;entryDy=0;endArrow=none;endFill=0;" parent="1" source="wmuh265id5Z9wnBF3gp4-31" target="wmuh265id5Z9wnBF3gp4-60" edge="1">
          <mxGeometry relative="1" as="geometry" />
        </mxCell>
        <mxCell id="wmuh265id5Z9wnBF3gp4-117" style="edgeStyle=orthogonalEdgeStyle;rounded=0;orthogonalLoop=1;jettySize=auto;html=1;exitX=0.5;exitY=1;exitDx=0;exitDy=0;entryX=0.5;entryY=0;entryDx=0;entryDy=0;endArrow=none;endFill=0;" parent="1" source="wmuh265id5Z9wnBF3gp4-31" target="wmuh265id5Z9wnBF3gp4-115" edge="1">
          <mxGeometry relative="1" as="geometry" />
        </mxCell>
        <mxCell id="wmuh265id5Z9wnBF3gp4-132" value="1" style="edgeLabel;html=1;align=center;verticalAlign=middle;resizable=0;points=[];" parent="wmuh265id5Z9wnBF3gp4-117" vertex="1" connectable="0">
          <mxGeometry x="-0.1548" y="1" relative="1" as="geometry">
            <mxPoint x="-1" as="offset" />
          </mxGeometry>
        </mxCell>
        <mxCell id="wmuh265id5Z9wnBF3gp4-31" value="Урок" style="rounded=0;whiteSpace=wrap;html=1;" parent="1" vertex="1">
          <mxGeometry x="471" y="844" width="120" height="60" as="geometry" />
        </mxCell>
        <mxCell id="wmuh265id5Z9wnBF3gp4-34" value="N" style="edgeStyle=orthogonalEdgeStyle;rounded=0;orthogonalLoop=1;jettySize=auto;html=1;exitX=0.5;exitY=1;exitDx=0;exitDy=0;entryX=0.5;entryY=0;entryDx=0;entryDy=0;endArrow=none;endFill=0;" parent="1" source="wmuh265id5Z9wnBF3gp4-32" target="wmuh265id5Z9wnBF3gp4-31" edge="1">
          <mxGeometry relative="1" as="geometry" />
        </mxCell>
        <mxCell id="wmuh265id5Z9wnBF3gp4-32" value="Содержит" style="rhombus;whiteSpace=wrap;html=1;" parent="1" vertex="1">
          <mxGeometry x="466" y="734" width="130" height="80" as="geometry" />
        </mxCell>
        <mxCell id="wmuh265id5Z9wnBF3gp4-83" style="edgeStyle=orthogonalEdgeStyle;rounded=0;orthogonalLoop=1;jettySize=auto;html=1;exitX=0.5;exitY=1;exitDx=0;exitDy=0;entryX=0;entryY=0.5;entryDx=0;entryDy=0;endArrow=none;endFill=0;" parent="1" source="wmuh265id5Z9wnBF3gp4-44" target="wmuh265id5Z9wnBF3gp4-16" edge="1">
          <mxGeometry relative="1" as="geometry" />
        </mxCell>
        <mxCell id="wmuh265id5Z9wnBF3gp4-100" value="N" style="edgeLabel;html=1;align=center;verticalAlign=middle;resizable=0;points=[];" parent="wmuh265id5Z9wnBF3gp4-83" vertex="1" connectable="0">
          <mxGeometry x="0.8647" y="1" relative="1" as="geometry">
            <mxPoint y="1" as="offset" />
          </mxGeometry>
        </mxCell>
        <mxCell id="wmuh265id5Z9wnBF3gp4-44" value="Подписан" style="rhombus;whiteSpace=wrap;html=1;" parent="1" vertex="1">
          <mxGeometry x="156" y="315" width="130" height="80" as="geometry" />
        </mxCell>
        <mxCell id="wmuh265id5Z9wnBF3gp4-47" value="Описание" style="ellipse;whiteSpace=wrap;html=1;" parent="1" vertex="1">
          <mxGeometry x="631" y="588" width="120" height="50" as="geometry" />
        </mxCell>
        <mxCell id="wmuh265id5Z9wnBF3gp4-48" value="Название" style="ellipse;whiteSpace=wrap;html=1;" parent="1" vertex="1">
          <mxGeometry x="631" y="649" width="120" height="50" as="geometry" />
        </mxCell>
        <mxCell id="wmuh265id5Z9wnBF3gp4-49" value="ID" style="ellipse;whiteSpace=wrap;html=1;" parent="1" vertex="1">
          <mxGeometry x="631" y="708" width="120" height="50" as="geometry" />
        </mxCell>
        <mxCell id="wmuh265id5Z9wnBF3gp4-50" value="Дата начала" style="ellipse;whiteSpace=wrap;html=1;" parent="1" vertex="1">
          <mxGeometry x="631" y="768" width="120" height="50" as="geometry" />
        </mxCell>
        <mxCell id="wmuh265id5Z9wnBF3gp4-51" value="Дата окончания" style="ellipse;whiteSpace=wrap;html=1;" parent="1" vertex="1">
          <mxGeometry x="631" y="828" width="120" height="50" as="geometry" />
        </mxCell>
        <mxCell id="wmuh265id5Z9wnBF3gp4-57" value="Краткое описание" style="ellipse;whiteSpace=wrap;html=1;" parent="1" vertex="1">
          <mxGeometry x="311" y="782" width="120" height="50" as="geometry" />
        </mxCell>
        <mxCell id="wmuh265id5Z9wnBF3gp4-58" value="Номер" style="ellipse;whiteSpace=wrap;html=1;" parent="1" vertex="1">
          <mxGeometry x="311" y="848" width="120" height="50" as="geometry" />
        </mxCell>
        <mxCell id="wmuh265id5Z9wnBF3gp4-59" value="ID" style="ellipse;whiteSpace=wrap;html=1;" parent="1" vertex="1">
          <mxGeometry x="311" y="908" width="120" height="50" as="geometry" />
        </mxCell>
        <mxCell id="wmuh265id5Z9wnBF3gp4-60" value="Контент урока" style="ellipse;whiteSpace=wrap;html=1;" parent="1" vertex="1">
          <mxGeometry x="311" y="968" width="120" height="50" as="geometry" />
        </mxCell>
        <mxCell id="wmuh265id5Z9wnBF3gp4-84" style="edgeStyle=orthogonalEdgeStyle;rounded=0;orthogonalLoop=1;jettySize=auto;html=1;exitX=0.5;exitY=1;exitDx=0;exitDy=0;entryX=0;entryY=0.75;entryDx=0;entryDy=0;endArrow=none;endFill=0;" parent="1" source="wmuh265id5Z9wnBF3gp4-79" target="wmuh265id5Z9wnBF3gp4-16" edge="1">
          <mxGeometry relative="1" as="geometry" />
        </mxCell>
        <mxCell id="wmuh265id5Z9wnBF3gp4-103" value="N" style="edgeLabel;html=1;align=center;verticalAlign=middle;resizable=0;points=[];" parent="wmuh265id5Z9wnBF3gp4-84" vertex="1" connectable="0">
          <mxGeometry x="0.905" y="1" relative="1" as="geometry">
            <mxPoint y="1" as="offset" />
          </mxGeometry>
        </mxCell>
        <mxCell id="wmuh265id5Z9wnBF3gp4-79" value="Преподает" style="rhombus;whiteSpace=wrap;html=1;" parent="1" vertex="1">
          <mxGeometry x="6" y="315" width="130" height="80" as="geometry" />
        </mxCell>
        <mxCell id="wmuh265id5Z9wnBF3gp4-118" style="edgeStyle=orthogonalEdgeStyle;rounded=0;orthogonalLoop=1;jettySize=auto;html=1;exitX=1;exitY=0.5;exitDx=0;exitDy=0;entryX=0;entryY=0.5;entryDx=0;entryDy=0;endArrow=none;endFill=0;" parent="1" source="wmuh265id5Z9wnBF3gp4-115" target="wmuh265id5Z9wnBF3gp4-116" edge="1">
          <mxGeometry relative="1" as="geometry" />
        </mxCell>
        <mxCell id="wmuh265id5Z9wnBF3gp4-131" value="N" style="edgeLabel;html=1;align=center;verticalAlign=middle;resizable=0;points=[];" parent="wmuh265id5Z9wnBF3gp4-118" vertex="1" connectable="0">
          <mxGeometry x="-0.0376" y="1" relative="1" as="geometry">
            <mxPoint as="offset" />
          </mxGeometry>
        </mxCell>
        <mxCell id="wmuh265id5Z9wnBF3gp4-115" value="Имеет" style="rhombus;whiteSpace=wrap;html=1;" parent="1" vertex="1">
          <mxGeometry x="466" y="938" width="130" height="80" as="geometry" />
        </mxCell>
        <mxCell id="wmuh265id5Z9wnBF3gp4-126" style="edgeStyle=orthogonalEdgeStyle;rounded=0;orthogonalLoop=1;jettySize=auto;html=1;exitX=0.5;exitY=1;exitDx=0;exitDy=0;entryX=0.5;entryY=0;entryDx=0;entryDy=0;endArrow=none;endFill=0;" parent="1" source="wmuh265id5Z9wnBF3gp4-116" target="wmuh265id5Z9wnBF3gp4-123" edge="1">
          <mxGeometry relative="1" as="geometry" />
        </mxCell>
        <mxCell id="wmuh265id5Z9wnBF3gp4-127" style="edgeStyle=orthogonalEdgeStyle;rounded=0;orthogonalLoop=1;jettySize=auto;html=1;exitX=0.5;exitY=1;exitDx=0;exitDy=0;entryX=0.5;entryY=0;entryDx=0;entryDy=0;endArrow=none;endFill=0;" parent="1" source="wmuh265id5Z9wnBF3gp4-116" target="wmuh265id5Z9wnBF3gp4-122" edge="1">
          <mxGeometry relative="1" as="geometry" />
        </mxCell>
        <mxCell id="wmuh265id5Z9wnBF3gp4-128" style="edgeStyle=orthogonalEdgeStyle;rounded=0;orthogonalLoop=1;jettySize=auto;html=1;exitX=0.5;exitY=1;exitDx=0;exitDy=0;entryX=0.5;entryY=0;entryDx=0;entryDy=0;endArrow=none;endFill=0;" parent="1" source="wmuh265id5Z9wnBF3gp4-116" target="wmuh265id5Z9wnBF3gp4-121" edge="1">
          <mxGeometry relative="1" as="geometry" />
        </mxCell>
        <mxCell id="wmuh265id5Z9wnBF3gp4-129" style="edgeStyle=orthogonalEdgeStyle;rounded=0;orthogonalLoop=1;jettySize=auto;html=1;exitX=0.5;exitY=1;exitDx=0;exitDy=0;entryX=0.5;entryY=0;entryDx=0;entryDy=0;endArrow=none;endFill=0;" parent="1" source="wmuh265id5Z9wnBF3gp4-116" target="wmuh265id5Z9wnBF3gp4-124" edge="1">
          <mxGeometry relative="1" as="geometry" />
        </mxCell>
        <mxCell id="wmuh265id5Z9wnBF3gp4-130" style="edgeStyle=orthogonalEdgeStyle;rounded=0;orthogonalLoop=1;jettySize=auto;html=1;exitX=0.5;exitY=1;exitDx=0;exitDy=0;entryX=0.5;entryY=0;entryDx=0;entryDy=0;endArrow=none;endFill=0;" parent="1" source="wmuh265id5Z9wnBF3gp4-116" target="wmuh265id5Z9wnBF3gp4-125" edge="1">
          <mxGeometry relative="1" as="geometry" />
        </mxCell>
        <mxCell id="wmuh265id5Z9wnBF3gp4-116" value="Тест" style="rounded=0;whiteSpace=wrap;html=1;" parent="1" vertex="1">
          <mxGeometry x="631" y="948" width="120" height="60" as="geometry" />
        </mxCell>
        <mxCell id="wmuh265id5Z9wnBF3gp4-119" value="Цена" style="ellipse;whiteSpace=wrap;html=1;" parent="1" vertex="1">
          <mxGeometry x="631" y="888" width="120" height="50" as="geometry" />
        </mxCell>
        <mxCell id="wmuh265id5Z9wnBF3gp4-121" value="Вопрос" style="ellipse;whiteSpace=wrap;html=1;" parent="1" vertex="1">
          <mxGeometry x="360" y="1070" width="120" height="50" as="geometry" />
        </mxCell>
        <mxCell id="wmuh265id5Z9wnBF3gp4-122" value="Варианты ответа" style="ellipse;whiteSpace=wrap;html=1;" parent="1" vertex="1">
          <mxGeometry x="491" y="1070" width="120" height="50" as="geometry" />
        </mxCell>
        <mxCell id="wmuh265id5Z9wnBF3gp4-123" value="Правильный ответ" style="ellipse;whiteSpace=wrap;html=1;" parent="1" vertex="1">
          <mxGeometry x="631" y="1070" width="120" height="50" as="geometry" />
        </mxCell>
        <mxCell id="wmuh265id5Z9wnBF3gp4-124" value="Оценка" style="ellipse;whiteSpace=wrap;html=1;" parent="1" vertex="1">
          <mxGeometry x="230" y="1070" width="120" height="50" as="geometry" />
        </mxCell>
        <mxCell id="wmuh265id5Z9wnBF3gp4-125" value="ID" style="ellipse;whiteSpace=wrap;html=1;" parent="1" vertex="1">
          <mxGeometry x="100" y="1070" width="120" height="50" as="geometry" />
        </mxCell>
      </root>
    </mxGraphModel>
  </diagram>
</mxfile>
